<?xml version="1.0" encoding="UTF-8" standalone="no"?>
<svg
   width="375pt"
   height="374.999991pt"
   viewBox="0 0 375 374.999991"
   version="1.2"
   id="svg28"
   xmlns="http://www.w3.org/2000/svg"
   xmlns:svg="http://www.w3.org/2000/svg">
  <defs
     id="defs5">
    <clipPath
       id="clip1">
      <path
         d="M 28.40625 37.660156 L 328.40625 37.660156 L 328.40625 337.660156 L 28.40625 337.660156 Z M 28.40625 37.660156 "
         id="path2" />
    </clipPath>
  </defs>
  <g
     id="surface1"
     style="fill:#ffffff">
    <path
       style="stroke:none;fill-rule:nonzero;fill:#ffffff;fill-opacity:1"
       d="M 178.488281 268.265625 C 134.085938 268.265625 97.957031 232.144531 97.957031 187.738281 C 97.957031 143.335938 134.082031 107.210938 178.488281 107.210938 C 222.894531 107.210938 259.015625 143.335938 259.015625 187.738281 C 259.015625 232.144531 222.894531 268.265625 178.488281 268.265625 Z M 178.488281 117.636719 C 139.835938 117.636719 108.386719 149.085938 108.386719 187.742188 C 108.386719 226.390625 139.835938 257.839844 178.488281 257.839844 C 217.144531 257.839844 248.585938 226.390625 248.585938 187.742188 C 248.585938 149.085938 217.144531 117.636719 178.488281 117.636719 Z M 178.488281 117.636719 "
       id="path7" />
    <g
       clip-path="url(#clip1)"
       clip-rule="nonzero"
       id="g11"
       style="fill:#ffffff">
      <path
         style="stroke:none;fill-rule:nonzero;fill:#ffffff;fill-opacity:1"
         d="M 193.757812 337.824219 L 163.28125 337.824219 L 156.785156 305.566406 C 150.566406 304.425781 144.398438 302.769531 138.363281 300.613281 L 116.695312 325.300781 L 90.300781 310.089844 L 100.828125 278.917969 C 95.980469 274.785156 91.453125 270.257812 87.308594 265.390625 L 56.160156 275.902344 L 40.972656 249.585938 L 65.59375 227.84375 C 63.449219 221.820312 61.792969 215.664062 60.648438 209.464844 L 28.488281 203.027344 L 28.433594 172.464844 L 60.644531 165.984375 C 61.789062 159.789062 63.441406 153.636719 65.585938 147.625 L 40.96875 125.835938 L 56.160156 99.574219 L 87.304688 110.046875 C 91.4375 105.199219 95.96875 100.667969 100.824219 96.523438 L 90.300781 65.328125 L 116.691406 50.148438 L 138.382812 74.816406 C 144.414062 72.667969 150.582031 71.007812 156.792969 69.867188 L 163.28125 37.660156 L 193.753906 37.660156 L 200.238281 69.878906 C 206.4375 71.023438 212.59375 72.675781 218.621094 74.824219 L 240.304688 50.148438 L 266.703125 65.328125 L 256.179688 96.496094 C 261.058594 100.648438 265.597656 105.179688 269.746094 110.039062 L 300.867188 99.574219 L 316.046875 125.835938 L 291.480469 147.566406 C 293.632812 153.605469 295.296875 159.78125 296.449219 166.007812 L 328.539062 172.460938 L 328.539062 203.027344 L 296.449219 209.4375 C 295.296875 215.664062 293.628906 221.839844 291.472656 227.894531 L 316.046875 249.582031 L 300.871094 275.902344 L 269.742188 265.40625 C 265.589844 270.265625 261.046875 274.800781 256.179688 278.945312 L 266.703125 310.089844 L 240.355469 325.300781 L 218.640625 300.605469 C 212.613281 302.757812 206.453125 304.414062 200.242188 305.558594 Z M 171.816406 327.394531 L 185.21875 327.394531 L 191.449219 296.398438 L 195.0625 295.851562 C 202.914062 294.664062 210.730469 292.5625 218.285156 289.609375 L 221.6875 288.277344 L 242.542969 311.996094 L 254.085938 305.332031 L 243.980469 275.414062 L 246.835938 273.132812 C 253.140625 268.097656 258.898438 262.355469 263.945312 256.054688 L 266.226562 253.210938 L 296.105469 263.292969 L 302.757812 251.757812 L 279.152344 230.925781 L 280.480469 227.53125 C 283.445312 219.949219 285.554688 212.113281 286.753906 204.242188 L 287.304688 200.628906 L 318.113281 194.472656 L 318.113281 181.003906 L 287.300781 174.808594 L 286.753906 171.199219 C 285.550781 163.324219 283.445312 155.496094 280.488281 147.9375 L 279.167969 144.546875 L 302.757812 123.675781 L 296.105469 112.179688 L 266.222656 122.222656 L 263.945312 119.382812 C 258.910156 113.101562 253.15625 107.355469 246.839844 102.304688 L 243.988281 100.023438 L 254.089844 70.105469 L 242.503906 63.441406 L 221.675781 87.148438 L 218.273438 85.824219 C 210.714844 82.867188 202.902344 80.769531 195.050781 79.578125 L 191.445312 79.03125 L 185.21875 48.085938 L 171.820312 48.085938 L 165.589844 79.023438 L 161.976562 79.570312 C 154.121094 80.757812 146.300781 82.855469 138.738281 85.808594 L 135.335938 87.136719 L 114.496094 63.441406 L 102.914062 70.105469 L 113.015625 100.039062 L 110.171875 102.320312 C 103.878906 107.367188 98.136719 113.109375 93.105469 119.394531 L 90.828125 122.234375 L 60.917969 112.175781 L 54.265625 123.675781 L 77.902344 144.597656 L 76.578125 147.988281 C 73.632812 155.527344 71.539062 163.328125 70.347656 171.167969 L 69.800781 174.777344 L 38.875 181 L 38.902344 194.476562 L 69.800781 200.664062 L 70.347656 204.277344 C 71.539062 212.121094 73.636719 219.929688 76.589844 227.480469 L 77.914062 230.875 L 54.261719 251.757812 L 60.921875 263.292969 L 90.824219 253.199219 L 93.105469 256.042969 C 98.15625 262.347656 103.898438 268.089844 110.175781 273.113281 L 113.023438 275.394531 L 102.914062 305.324219 L 114.496094 311.996094 L 135.3125 288.277344 L 138.71875 289.613281 C 146.277344 292.574219 154.097656 294.675781 161.96875 295.859375 L 165.582031 296.402344 Z M 171.816406 327.394531 "
         id="path9" />
    </g>
    <path
       style="stroke:none;fill-rule:nonzero;fill:#ffffff;fill-opacity:1"
       d="M 153.128906 213.785156 L 127.085938 187.746094 L 153.128906 161.699219 L 160.5 169.074219 L 141.832031 187.742188 L 160.5 206.410156 Z M 153.128906 213.785156 "
       id="path13" />
    <path
       style="stroke:none;fill-rule:nonzero;fill:#ffffff;fill-opacity:1"
       d="M 203.851562 213.785156 L 196.476562 206.410156 L 215.148438 187.746094 L 196.476562 169.078125 L 203.851562 161.703125 L 229.894531 187.746094 Z M 203.851562 213.785156 "
       id="path15" />
    <path
       style="stroke:none;fill-rule:nonzero;fill:#ffffff;fill-opacity:1"
       d="M 180.066406 148.832031 L 190.335938 150.648438 L 176.90625 226.652344 L 166.636719 224.839844 Z M 180.066406 148.832031 "
       id="path17" />
    <path
       style="stroke:none;fill-rule:nonzero;fill:#ffffff;fill-opacity:1"
       d="M 173.277344 87.515625 L 183.703125 87.515625 L 183.703125 97.941406 L 173.277344 97.941406 Z M 173.277344 87.515625 "
       id="path19" />
    <path
       style="stroke:none;fill-rule:nonzero;fill:#ffffff;fill-opacity:1"
       d="M 173.277344 277.539062 L 183.703125 277.539062 L 183.703125 287.96875 L 173.277344 287.96875 Z M 173.277344 277.539062 "
       id="path21" />
    <path
       style="stroke:none;fill-rule:nonzero;fill:#ffffff;fill-opacity:1"
       d="M 78.261719 182.527344 L 88.691406 182.527344 L 88.691406 192.957031 L 78.261719 192.957031 Z M 78.261719 182.527344 "
       id="path23" />
    <path
       style="stroke:none;fill-rule:nonzero;fill:#ffffff;fill-opacity:1"
       d="M 268.289062 182.527344 L 278.71875 182.527344 L 278.71875 192.957031 L 268.289062 192.957031 Z M 268.289062 182.527344 "
       id="path25" />
  </g>
</svg>
