<?xml version="1.0" encoding="UTF-8" standalone="no"?>
<svg
   width="468"
   height="60"
   viewBox="0 0 351 44.999999"
   version="1.2"
   id="svg28"
   sodipodi:docname="BC_white_logo.svg"
   inkscape:version="1.1 (c68e22c387, 2021-05-23)"
   xmlns:inkscape="http://www.inkscape.org/namespaces/inkscape"
   xmlns:sodipodi="http://sodipodi.sourceforge.net/DTD/sodipodi-0.dtd"
   xmlns="http://www.w3.org/2000/svg"
   xmlns:svg="http://www.w3.org/2000/svg">
  <sodipodi:namedview
     id="namedview38"
     pagecolor="#505050"
     bordercolor="#ffffff"
     borderopacity="1"
     inkscape:pageshadow="0"
     inkscape:pageopacity="0"
     inkscape:pagecheckerboard="1"
     showgrid="false"
     inkscape:zoom="2.2606838"
     inkscape:cx="234"
     inkscape:cy="29.858223"
     inkscape:window-width="3440"
     inkscape:window-height="1377"
     inkscape:window-x="-8"
     inkscape:window-y="-8"
     inkscape:window-maximized="1"
     inkscape:current-layer="svg28" />
  <defs
     id="defs5">
    <clipPath
       id="clip1">
      <path
         d="m 28.40625,37.660156 h 300 V 337.66016 h -300 z m 0,0"
         id="path2" />
    </clipPath>
  </defs>
  <g
     id="surface1"
     style="fill:#ffffff"
     transform="matrix(0.12974102,0,0,0.12236448,131.09815,-0.79992874)">
    <path
       style="fill:#ffffff;fill-opacity:1;fill-rule:nonzero;stroke:none"
       d="m 178.48828,268.26562 c -44.40234,0 -80.531249,-36.12109 -80.531249,-80.52734 0,-44.40234 36.124999,-80.52734 80.531249,-80.52734 44.40625,0 80.52734,36.125 80.52734,80.52734 0,44.40625 -36.12109,80.52734 -80.52734,80.52734 z m 0,-150.6289 c -38.65234,0 -70.10156,31.44922 -70.10156,70.10547 0,38.64843 31.44922,70.09765 70.10156,70.09765 38.65625,0 70.09766,-31.44922 70.09766,-70.09765 0,-38.65625 -31.44141,-70.10547 -70.09766,-70.10547 z m 0,0"
       id="path7" />
    <g
       clip-path="url(#clip1)"
       clip-rule="nonzero"
       id="g11"
       style="fill:#ffffff">
      <path
         style="fill:#ffffff;fill-opacity:1;fill-rule:nonzero;stroke:none"
         d="m 193.75781,337.82422 h -30.47656 l -6.49609,-32.25781 c -6.21875,-1.14063 -12.38672,-2.79688 -18.42188,-4.95313 l -21.66797,24.6875 -26.394529,-15.21094 10.527349,-31.17187 c -4.847661,-4.13281 -9.375005,-8.66016 -13.519536,-13.52735 l -31.148438,10.51172 -15.1875,-26.3164 24.621094,-21.74219 c -2.144531,-6.02344 -3.800781,-12.17969 -4.945312,-18.37891 l -32.160157,-6.4375 -0.05469,-30.5625 32.210937,-6.48047 c 1.144531,-6.19531 2.796875,-12.34765 4.941407,-18.35937 L 40.96875,125.83594 56.160156,99.574219 87.304688,110.04688 C 91.4375,105.19922 95.96875,100.66797 100.82422,96.523438 L 90.300781,65.328125 116.69141,50.148438 l 21.6914,24.667968 c 6.03125,-2.148437 12.19922,-3.808594 18.41016,-4.949218 l 6.48828,-32.207032 h 30.47266 l 6.48437,32.21875 c 6.19922,1.144532 12.35547,2.796875 18.38281,4.945313 l 21.6836,-24.675781 26.39843,15.179687 -10.52343,31.167969 c 4.8789,4.152346 9.41797,8.683596 13.5664,13.542966 l 31.1211,-10.464841 15.17968,26.261721 -24.5664,21.73047 c 2.15234,6.03906 3.8164,12.21484 4.96875,18.4414 l 32.08984,6.45313 v 30.5664 l -32.08984,6.41016 c -1.15235,6.22656 -2.82031,12.40234 -4.97656,18.45703 l 24.57421,21.6875 -15.17578,26.32031 -31.1289,-10.49609 c -4.15235,4.85937 -8.69532,9.39453 -13.5625,13.53906 l 10.52343,31.14453 -26.34765,15.21094 -21.71485,-24.69531 c -6.02734,2.15234 -12.1875,3.80859 -18.39843,4.95312 z m -21.9414,-10.42969 h 13.40234 l 6.23047,-30.99609 3.61328,-0.54688 c 7.85156,-1.1875 15.66797,-3.28906 23.22266,-6.24219 l 3.40234,-1.33203 20.85547,23.71875 11.54297,-6.66406 -10.10547,-29.91797 2.85547,-2.28125 c 6.30468,-5.03515 12.0625,-10.77734 17.10937,-17.07812 l 2.28125,-2.84375 29.87891,10.08203 6.65234,-11.53516 -23.60547,-20.83203 1.32813,-3.39453 c 2.96484,-7.58203 5.07422,-15.41797 6.27344,-23.28906 l 0.55078,-3.61328 30.80859,-6.15625 v -13.46875 l -30.8125,-6.19532 -0.54687,-3.60937 c -1.20313,-7.875 -3.3086,-15.70313 -6.26563,-23.26172 l -1.32031,-3.39063 23.58984,-20.87109 -6.65234,-11.49609 -29.88281,10.04297 -2.27735,-2.83985 c -5.03515,-6.28125 -10.78906,-12.02734 -17.10547,-17.07812 l -2.85156,-2.28125 10.10156,-29.917971 -11.58593,-6.664063 -20.82813,23.707032 -3.40234,-1.324219 c -7.5586,-2.957031 -15.3711,-5.054688 -23.22266,-6.246094 l -3.60547,-0.546875 -6.22656,-30.945312 h -13.39844 l -6.23047,30.9375 -3.61328,0.546874 c -7.85547,1.1875 -15.67578,3.285157 -23.23828,6.238282 l -3.40234,1.328125 -20.83985,-23.695313 -11.58203,6.664063 10.10157,29.933591 -2.84375,2.28125 c -6.29297,5.04688 -12.035161,10.78907 -17.066411,17.07422 l -2.277344,2.83985 -29.910156,-10.0586 -6.652344,11.5 23.636719,20.92188 -1.324219,3.39062 c -2.945313,7.53906 -5.039063,15.33984 -6.230469,23.17969 L 69.800781,174.77734 38.875,181 l 0.02734,13.47656 30.898437,6.1875 0.546875,3.61328 c 1.191406,7.84375 3.289063,15.65235 6.242188,23.20313 l 1.324218,3.39453 -23.652343,20.88281 6.660156,11.53516 29.902344,-10.09375 2.28125,2.84375 c 5.050781,6.30469 10.792975,12.04687 17.070315,17.07031 l 2.84766,2.28125 -10.10938,29.92969 11.58203,6.67187 20.81641,-23.71875 3.40625,1.33594 c 7.55859,2.96094 15.37891,5.0625 23.25,6.24609 l 3.61328,0.54297 z m 0,0"
         id="path9" />
    </g>
    <path
       style="fill:#ffffff;fill-opacity:1;fill-rule:nonzero;stroke:none"
       d="m 153.12891,213.78516 -26.04297,-26.03907 26.04297,-26.04687 7.37109,7.375 -18.66797,18.66797 18.66797,18.66797 z m 0,0"
       id="path13" />
    <path
       style="fill:#ffffff;fill-opacity:1;fill-rule:nonzero;stroke:none"
       d="m 203.85156,213.78516 -7.375,-7.375 18.67188,-18.66407 -18.67188,-18.66797 7.375,-7.375 26.04297,26.04297 z m 0,0"
       id="path15" />
    <path
       style="fill:#ffffff;fill-opacity:1;fill-rule:nonzero;stroke:none"
       d="m 180.06641,148.83203 10.26953,1.81641 -13.42969,76.0039 -10.26953,-1.8125 z m 0,0"
       id="path17" />
    <path
       style="fill:#ffffff;fill-opacity:1;fill-rule:nonzero;stroke:none"
       d="m 173.27734,87.515625 h 10.42578 v 10.425781 h -10.42578 z m 0,0"
       id="path19" />
    <path
       style="fill:#ffffff;fill-opacity:1;fill-rule:nonzero;stroke:none"
       d="m 173.27734,277.53906 h 10.42578 v 10.42969 h -10.42578 z m 0,0"
       id="path21" />
    <path
       style="fill:#ffffff;fill-opacity:1;fill-rule:nonzero;stroke:none"
       d="m 78.261719,182.52734 h 10.429687 v 10.42969 H 78.261719 Z m 0,0"
       id="path23" />
    <path
       style="fill:#ffffff;fill-opacity:1;fill-rule:nonzero;stroke:none"
       d="m 268.28906,182.52734 h 10.42969 v 10.42969 h -10.42969 z m 0,0"
       id="path25" />
  </g>
  <path
     d="M 0.38664802,41.692709 V 2.0208572 H 8.743332 q 3.809664,0 6.04221,2.5175303 2.232545,2.5175304 2.232545,6.5566455 0,3.375151 -1.351816,5.865015 -1.351817,2.489865 -3.727737,3.541142 v 0.110664 q 2.9699,0.470308 4.75184,3.043169 1.781941,2.545195 1.781941,6.63964 0,5.090391 -2.703634,8.244221 -2.703633,3.153828 -6.820529,3.153828 z M 3.827635,6.2259629 V 19.034935 h 3.522916 q 2.826526,0 4.444609,-1.8259 1.618083,-1.853566 1.618083,-5.201052 0,-5.7820201 -5.632568,-5.7820201 z m 0,16.9864131 v 14.275227 h 4.669912 q 3.031346,0 4.690393,-1.936562 1.679531,-1.936561 1.679531,-5.311712 0,-7.026953 -7.086796,-7.026953 z"
     style="font-size:48.751px;line-height:1.25;font-family:Ebrima;-inkscape-font-specification:'Ebrima, Normal';fill:#ffffff;stroke-width:1.21877"
     id="path17228" />
  <path
     d="M 45.488162,41.692709 H 41.391748 L 36.476052,30.571311 Q 35.800143,29.022062 35.1652,27.94312 34.530256,26.836513 33.854347,26.144885 33.198921,25.453256 32.420602,25.148938 31.662766,24.816956 30.700109,24.816956 H 27.873583 V 41.692709 H 24.432596 V 2.0208572 h 8.766325 q 1.925315,0 3.543398,0.6639641 1.638565,0.6362989 2.826525,1.9642269 1.208443,1.3279282 1.88435,3.3198203 0.675909,1.9642269 0.675909,4.6200835 0,2.074887 -0.471088,3.817792 -0.450605,1.715242 -1.310852,3.070835 -0.839765,1.355593 -2.048207,2.323873 -1.18796,0.940616 -2.683151,1.466255 v 0.110664 q 0.737355,0.442643 1.269889,1.023611 0.553015,0.553304 1.044585,1.327929 0.49157,0.774624 0.962657,1.77057 0.49157,0.968281 1.08555,2.268544 z M 27.873583,6.2259629 V 20.611851 h 4.669912 q 1.29037,0 2.37592,-0.525639 1.106031,-0.525638 1.904832,-1.493919 0.798801,-0.995946 1.249406,-2.406869 0.450606,-1.438589 0.450606,-3.20916 0,-3.1814944 -1.536155,-4.9520652 -1.515673,-1.7982359 -4.403645,-1.7982359 z"
     style="font-size:48.751px;line-height:1.25;font-family:Ebrima;-inkscape-font-specification:'Ebrima, Normal';fill:#ffffff;stroke-width:1.21877"
     id="path17230" />
  <path
     d="M 72.25823,41.692709 H 68.448562 L 65.335286,30.571311 h -12.4531 L 49.953251,41.692709 H 46.123104 L 57.388241,2.0208572 h 3.563882 z M 64.208773,26.39387 59.600304,9.4904527 Q 59.375006,8.6604977 59.1497,6.8345965 H 59.06779 Q 58.862967,8.5221719 58.596704,9.4904527 L 54.029183,26.39387 Z"
     style="font-size:48.751px;line-height:1.25;font-family:Ebrima;-inkscape-font-specification:'Ebrima, Normal';fill:#ffffff;stroke-width:1.21877"
     id="path17232" />
  <path
     d="M 76.57995,41.692709 V 2.0208572 h 8.11089 q 15.52541,0 15.52541,19.3379528 0,9.184836 -4.32171,14.7732 -4.30124,5.560699 -11.53141,5.560699 z M 80.02093,6.2259629 V 37.487603 h 4.38316 q 5.77594,0 8.99163,-4.17744 3.21568,-4.177441 3.21568,-11.840692 0,-15.2435081 -12.00249,-15.2435081 z"
     style="font-size:48.751px;line-height:1.25;font-family:Ebrima;-inkscape-font-specification:'Ebrima, Normal';fill:#ffffff;stroke-width:1.21877"
     id="path17234" />
  <path
     d="m 137.47313,40.032798 q -3.25665,2.323875 -8.11089,2.323875 -6.26752,0 -10.03622,-5.450038 -3.7687,-5.450038 -3.7687,-14.302892 0,-9.516818 4.23979,-15.3818341 4.23979,-5.8650157 10.75308,-5.8650157 4.17835,0 6.92294,1.6322449 v 4.9520652 q -3.15423,-2.3792045 -6.9639,-2.3792045 -5.05907,0 -8.21331,4.5647532 -3.13375,4.564752 -3.13375,12.200339 0,7.248274 2.92893,11.56404 2.94942,4.288102 7.72174,4.288102 4.42413,0 7.66029,-2.655857 z"
     style="font-size:48.751px;line-height:1.25;font-family:Ebrima;-inkscape-font-specification:'Ebrima, Normal';fill:#ffffff;stroke-width:1.21877"
     id="path17236" />
  <path
     d="m 173.70591,40.088129 v -5.477704 q 0.69639,0.829955 1.65905,1.49392 0.98314,0.663964 2.04821,1.134272 1.08555,0.442642 2.1711,0.691629 1.08555,0.248987 2.00724,0.248987 3.17472,0 4.73136,-1.576915 1.57712,-1.60458 1.57712,-4.592418 0,-1.60458 -0.53254,-2.794182 -0.51204,-1.189602 -1.43374,-2.157883 -0.92169,-0.995946 -2.19158,-1.881231 -1.24941,-0.912951 -2.70364,-1.908897 -1.53615,-1.051277 -2.86748,-2.130218 -1.33134,-1.078942 -2.31448,-2.379205 -0.98314,-1.300263 -1.55664,-2.932508 -0.55301,-1.65991 -0.55301,-3.873124 0,-2.7111857 0.88073,-4.7030779 0.88073,-2.0195573 2.31447,-3.3198202 1.43375,-1.300263 3.25665,-1.9365619 1.84339,-0.6362988 3.74822,-0.6362988 4.3422,0 6.32896,1.4109236 v 5.2287168 q -2.60123,-2.4345348 -6.67716,-2.4345348 -1.12651,0 -2.25302,0.3319821 -1.12651,0.3043168 -2.00724,1.0236111 -0.88074,0.7192944 -1.43375,1.8535664 -0.55302,1.1342719 -0.55302,2.7665166 0,1.521584 0.40964,2.628191 0.43013,1.106607 1.24941,2.019558 0.81929,0.91295 1.98676,1.770571 1.18796,0.85762 2.72411,1.881231 1.57713,1.051277 2.99039,2.213213 1.41326,1.161937 2.47833,2.572861 1.06506,1.410924 1.67953,3.126164 0.63494,1.71524 0.63494,3.928454 0,2.932507 -0.86025,4.97973 -0.83976,2.019558 -2.29399,3.292156 -1.43374,1.272597 -3.31809,1.825901 -1.88435,0.580968 -3.97352,0.580968 -0.69639,0 -1.72049,-0.165991 -1.02411,-0.138326 -2.08918,-0.442642 -1.06506,-0.276652 -2.02772,-0.69163 -0.94218,-0.442642 -1.51568,-0.968281 z"
     style="font-size:48.751px;line-height:1.25;font-family:Ebrima;-inkscape-font-specification:'Ebrima, Normal';fill:#ffffff;stroke-width:1.21877"
     id="path17240" />
  <path
     d="m 214.7315,6.2259629 h -8.47957 V 41.692709 h -3.44099 V 6.2259629 h -8.45909 V 2.0208572 h 20.37965 z"
     style="font-size:48.751px;line-height:1.25;font-family:Ebrima;-inkscape-font-specification:'Ebrima, Normal';fill:#ffffff;stroke-width:1.21877"
     id="path17242" />
  <path
     d="M 234.90634,41.692709 H 219.33996 V 2.0208572 h 14.91095 V 6.2259629 H 222.78095 V 19.422248 h 10.60971 v 4.177441 h -10.60971 v 13.887914 h 12.12539 z"
     style="font-size:48.751px;line-height:1.25;font-family:Ebrima;-inkscape-font-specification:'Ebrima, Normal';fill:#ffffff;stroke-width:1.21877"
     id="path17244" />
  <path
     d="M 255.79805,41.692709 H 240.5594 V 2.0208572 h 3.44098 V 37.487603 h 11.79767 z"
     style="font-size:48.751px;line-height:1.25;font-family:Ebrima;-inkscape-font-specification:'Ebrima, Normal';fill:#ffffff;stroke-width:1.21877"
     id="path17246" />
  <path
     d="M 275.54276,41.692709 H 260.3041 V 2.0208572 h 3.44099 V 37.487603 h 11.79767 z"
     style="font-size:48.751px;line-height:1.25;font-family:Ebrima;-inkscape-font-specification:'Ebrima, Normal';fill:#ffffff;stroke-width:1.21877"
     id="path17248" />
  <g
     id="g17401"
     style="fill:#ffffff"
     transform="matrix(0.12974102,0,0,0.12236448,271.8573,-0.48400738)">
    <path
       style="fill:#ffffff;fill-opacity:1;fill-rule:nonzero;stroke:none"
       d="m 178.48828,268.26562 c -44.40234,0 -80.531249,-36.12109 -80.531249,-80.52734 0,-44.40234 36.124999,-80.52734 80.531249,-80.52734 44.40625,0 80.52734,36.125 80.52734,80.52734 0,44.40625 -36.12109,80.52734 -80.52734,80.52734 z m 0,-150.6289 c -38.65234,0 -70.10156,31.44922 -70.10156,70.10547 0,38.64843 31.44922,70.09765 70.10156,70.09765 38.65625,0 70.09766,-31.44922 70.09766,-70.09765 0,-38.65625 -31.44141,-70.10547 -70.09766,-70.10547 z m 0,0"
       id="path17381" />
    <g
       clip-path="url(#clip1)"
       clip-rule="nonzero"
       id="g17385"
       style="fill:#ffffff">
      <path
         style="fill:#ffffff;fill-opacity:1;fill-rule:nonzero;stroke:none"
         d="m 193.75781,337.82422 h -30.47656 l -6.49609,-32.25781 c -6.21875,-1.14063 -12.38672,-2.79688 -18.42188,-4.95313 l -21.66797,24.6875 -26.394529,-15.21094 10.527349,-31.17187 c -4.847661,-4.13281 -9.375005,-8.66016 -13.519536,-13.52735 l -31.148438,10.51172 -15.1875,-26.3164 24.621094,-21.74219 c -2.144531,-6.02344 -3.800781,-12.17969 -4.945312,-18.37891 l -32.160157,-6.4375 -0.05469,-30.5625 32.210937,-6.48047 c 1.144531,-6.19531 2.796875,-12.34765 4.941407,-18.35937 L 40.96875,125.83594 56.160156,99.574219 87.304688,110.04688 C 91.4375,105.19922 95.96875,100.66797 100.82422,96.523438 L 90.300781,65.328125 116.69141,50.148438 l 21.6914,24.667968 c 6.03125,-2.148437 12.19922,-3.808594 18.41016,-4.949218 l 6.48828,-32.207032 h 30.47266 l 6.48437,32.21875 c 6.19922,1.144532 12.35547,2.796875 18.38281,4.945313 l 21.6836,-24.675781 26.39843,15.179687 -10.52343,31.167969 c 4.8789,4.152346 9.41797,8.683596 13.5664,13.542966 l 31.1211,-10.464841 15.17968,26.261721 -24.5664,21.73047 c 2.15234,6.03906 3.8164,12.21484 4.96875,18.4414 l 32.08984,6.45313 v 30.5664 l -32.08984,6.41016 c -1.15235,6.22656 -2.82031,12.40234 -4.97656,18.45703 l 24.57421,21.6875 -15.17578,26.32031 -31.1289,-10.49609 c -4.15235,4.85937 -8.69532,9.39453 -13.5625,13.53906 l 10.52343,31.14453 -26.34765,15.21094 -21.71485,-24.69531 c -6.02734,2.15234 -12.1875,3.80859 -18.39843,4.95312 z m -21.9414,-10.42969 h 13.40234 l 6.23047,-30.99609 3.61328,-0.54688 c 7.85156,-1.1875 15.66797,-3.28906 23.22266,-6.24219 l 3.40234,-1.33203 20.85547,23.71875 11.54297,-6.66406 -10.10547,-29.91797 2.85547,-2.28125 c 6.30468,-5.03515 12.0625,-10.77734 17.10937,-17.07812 l 2.28125,-2.84375 29.87891,10.08203 6.65234,-11.53516 -23.60547,-20.83203 1.32813,-3.39453 c 2.96484,-7.58203 5.07422,-15.41797 6.27344,-23.28906 l 0.55078,-3.61328 30.80859,-6.15625 v -13.46875 l -30.8125,-6.19532 -0.54687,-3.60937 c -1.20313,-7.875 -3.3086,-15.70313 -6.26563,-23.26172 l -1.32031,-3.39063 23.58984,-20.87109 -6.65234,-11.49609 -29.88281,10.04297 -2.27735,-2.83985 c -5.03515,-6.28125 -10.78906,-12.02734 -17.10547,-17.07812 l -2.85156,-2.28125 10.10156,-29.917971 -11.58593,-6.664063 -20.82813,23.707032 -3.40234,-1.324219 c -7.5586,-2.957031 -15.3711,-5.054688 -23.22266,-6.246094 l -3.60547,-0.546875 -6.22656,-30.945312 h -13.39844 l -6.23047,30.9375 -3.61328,0.546874 c -7.85547,1.1875 -15.67578,3.285157 -23.23828,6.238282 l -3.40234,1.328125 -20.83985,-23.695313 -11.58203,6.664063 10.10157,29.933591 -2.84375,2.28125 c -6.29297,5.04688 -12.035161,10.78907 -17.066411,17.07422 l -2.277344,2.83985 -29.910156,-10.0586 -6.652344,11.5 23.636719,20.92188 -1.324219,3.39062 c -2.945313,7.53906 -5.039063,15.33984 -6.230469,23.17969 L 69.800781,174.77734 38.875,181 l 0.02734,13.47656 30.898437,6.1875 0.546875,3.61328 c 1.191406,7.84375 3.289063,15.65235 6.242188,23.20313 l 1.324218,3.39453 -23.652343,20.88281 6.660156,11.53516 29.902344,-10.09375 2.28125,2.84375 c 5.050781,6.30469 10.792975,12.04687 17.070315,17.07031 l 2.84766,2.28125 -10.10938,29.92969 11.58203,6.67187 20.81641,-23.71875 3.40625,1.33594 c 7.55859,2.96094 15.37891,5.0625 23.25,6.24609 l 3.61328,0.54297 z m 0,0"
         id="path17383" />
    </g>
    <path
       style="fill:#ffffff;fill-opacity:1;fill-rule:nonzero;stroke:none"
       d="m 153.12891,213.78516 -26.04297,-26.03907 26.04297,-26.04687 7.37109,7.375 -18.66797,18.66797 18.66797,18.66797 z m 0,0"
       id="path17387" />
    <path
       style="fill:#ffffff;fill-opacity:1;fill-rule:nonzero;stroke:none"
       d="m 203.85156,213.78516 -7.375,-7.375 18.67188,-18.66407 -18.67188,-18.66797 7.375,-7.375 26.04297,26.04297 z m 0,0"
       id="path17389" />
    <path
       style="fill:#ffffff;fill-opacity:1;fill-rule:nonzero;stroke:none"
       d="m 180.06641,148.83203 10.26953,1.81641 -13.42969,76.0039 -10.26953,-1.8125 z m 0,0"
       id="path17391" />
    <path
       style="fill:#ffffff;fill-opacity:1;fill-rule:nonzero;stroke:none"
       d="m 173.27734,87.515625 h 10.42578 v 10.425781 h -10.42578 z m 0,0"
       id="path17393" />
    <path
       style="fill:#ffffff;fill-opacity:1;fill-rule:nonzero;stroke:none"
       d="m 173.27734,277.53906 h 10.42578 v 10.42969 h -10.42578 z m 0,0"
       id="path17395" />
    <path
       style="fill:#ffffff;fill-opacity:1;fill-rule:nonzero;stroke:none"
       d="m 78.261719,182.52734 h 10.429687 v 10.42969 H 78.261719 Z m 0,0"
       id="path17397" />
    <path
       style="fill:#ffffff;fill-opacity:1;fill-rule:nonzero;stroke:none"
       d="m 268.28906,182.52734 h 10.42969 v 10.42969 h -10.42969 z m 0,0"
       id="path17399" />
  </g>
</svg>
